<svg width="287" height="71" viewBox="0 0 287 71" fill="none" xmlns="http://www.w3.org/2000/svg">
<path d="M21.1428 70.272C17.5588 70.272 14.4441 69.6533 11.7988 68.416C9.19608 67.2213 7.12675 65.6 5.59075 63.552C4.05475 61.504 3.07342 59.2213 2.64675 56.704H14.1667C14.8068 59.3493 17.1321 60.672 21.1428 60.672C23.5321 60.672 25.4521 59.968 26.9028 58.56C28.3534 57.152 29.0788 55.2747 29.0788 52.928V48.96C26.7321 52.1173 23.1481 53.696 18.3268 53.696C14.7854 53.696 11.6281 52.8853 8.85475 51.264C6.08142 49.6427 3.92675 47.3813 2.39075 44.48C0.85475 41.5787 0.08675 38.3147 0.08675 34.688C0.08675 30.976 0.85475 27.6693 2.39075 24.768C3.92675 21.824 6.08142 19.52 8.85475 17.856C11.6281 16.192 14.7854 15.36 18.3268 15.36C23.1481 15.36 26.7321 16.9387 29.0788 20.096V16.256H40.4708V53.056C40.4708 56.384 39.6388 59.3493 37.9748 61.952C36.3108 64.5973 34.0068 66.6453 31.0628 68.096C28.1614 69.5467 24.8548 70.272 21.1428 70.272ZM20.1188 44.288C22.8921 44.288 25.1108 43.392 26.7748 41.6C28.4388 39.808 29.2708 37.504 29.2708 34.688C29.2708 31.872 28.4388 29.568 26.7748 27.776C25.1108 25.984 22.8921 25.088 20.1188 25.088C17.4308 25.088 15.2761 25.984 13.6548 27.776C12.0334 29.568 11.2228 31.872 11.2228 34.688C11.2228 37.504 12.0334 39.808 13.6548 41.6C15.2761 43.392 17.4308 44.288 20.1188 44.288ZM67.0533 15.36C70.8506 15.36 74.2639 16.2133 77.2933 17.92C80.3226 19.584 82.6906 21.9093 84.3973 24.896C86.1039 27.8827 86.9573 31.2533 86.9573 35.008C86.9573 38.7627 86.1039 42.1333 84.3973 45.12C82.6906 48.1067 80.3226 50.432 77.2933 52.096C74.2639 53.8027 70.8506 54.656 67.0533 54.656C63.2559 54.656 59.8426 53.8027 56.8133 52.096C53.7839 50.432 51.4159 48.1067 49.7093 45.12C48.0026 42.1333 47.1493 38.7627 47.1493 35.008C47.1493 31.2533 48.0026 27.8827 49.7093 24.896C51.4159 21.9093 53.7839 19.584 56.8133 17.92C59.8426 16.2133 63.2559 15.36 67.0533 15.36ZM67.0533 25.088C64.4079 25.088 62.2533 26.0267 60.5893 27.904C58.9679 29.7387 58.1573 32.1067 58.1573 35.008C58.1573 37.9093 58.9679 40.2987 60.5893 42.176C62.2533 44.0107 64.4079 44.928 67.0533 44.928C69.6986 44.928 71.8319 44.0107 73.4533 42.176C75.1173 40.2987 75.9493 37.9093 75.9493 35.008C75.9493 32.1067 75.1173 29.7387 73.4533 27.904C71.8319 26.0267 69.6986 25.088 67.0533 25.088ZM109.952 54.656C106.41 54.656 103.253 53.8027 100.48 52.096C97.7064 50.432 95.5518 48.1067 94.0158 45.12C92.4798 42.1333 91.7118 38.7627 91.7118 35.008C91.7118 31.2533 92.4798 27.8827 94.0158 24.896C95.5518 21.9093 97.7064 19.584 100.48 17.92C103.253 16.2133 106.41 15.36 109.952 15.36C114.773 15.36 118.357 16.9387 120.704 20.096V-3.8147e-06H132.096V53.76H120.704V49.92C118.357 53.0773 114.773 54.656 109.952 54.656ZM111.744 44.928C114.517 44.928 116.736 44.0107 118.4 42.176C120.064 40.2987 120.896 37.9093 120.896 35.008C120.896 32.1067 120.064 29.7387 118.4 27.904C116.736 26.0267 114.517 25.088 111.744 25.088C109.056 25.088 106.901 26.0267 105.28 27.904C103.658 29.7387 102.848 32.1067 102.848 35.008C102.848 37.9093 103.658 40.2987 105.28 42.176C106.901 44.0107 109.056 44.928 111.744 44.928ZM163.798 23.936V33.536H139.286V23.936H163.798ZM170.944 16.256H182.336V20.096C184.683 16.9387 188.267 15.36 193.088 15.36C196.63 15.36 199.787 16.2133 202.56 17.92C205.334 19.584 207.488 21.9093 209.024 24.896C210.56 27.8827 211.328 31.2533 211.328 35.008C211.328 38.7627 210.56 42.1333 209.024 45.12C207.488 48.1067 205.334 50.432 202.56 52.096C199.787 53.8027 196.63 54.656 193.088 54.656C188.267 54.656 184.683 53.0773 182.336 49.92V69.376H170.944V16.256ZM191.296 44.928C193.984 44.928 196.139 44.0107 197.76 42.176C199.382 40.2987 200.192 37.9093 200.192 35.008C200.192 32.1067 199.382 29.7387 197.76 27.904C196.139 26.0267 193.984 25.088 191.296 25.088C188.523 25.088 186.304 26.0267 184.64 27.904C182.976 29.7387 182.144 32.1067 182.144 35.008C182.144 37.9093 182.976 40.2987 184.64 42.176C186.304 44.0107 188.523 44.928 191.296 44.928ZM218.007 16.256H229.399V20.096C231.745 16.9387 235.244 15.36 239.895 15.36C241.943 15.36 243.585 15.5733 244.823 16L244.951 26.688C243.329 25.8347 241.388 25.408 239.127 25.408C236.097 25.408 233.708 26.2187 231.959 27.84C230.252 29.4613 229.399 31.7013 229.399 34.56V53.76H218.007V16.256ZM266.991 15.36C270.788 15.36 274.201 16.2133 277.231 17.92C280.26 19.584 282.628 21.9093 284.335 24.896C286.041 27.8827 286.895 31.2533 286.895 35.008C286.895 38.7627 286.041 42.1333 284.335 45.12C282.628 48.1067 280.26 50.432 277.231 52.096C274.201 53.8027 270.788 54.656 266.991 54.656C263.193 54.656 259.78 53.8027 256.751 52.096C253.721 50.432 251.353 48.1067 249.647 45.12C247.94 42.1333 247.087 38.7627 247.087 35.008C247.087 31.2533 247.94 27.8827 249.647 24.896C251.353 21.9093 253.721 19.584 256.751 17.92C259.78 16.2133 263.193 15.36 266.991 15.36ZM266.991 25.088C264.345 25.088 262.191 26.0267 260.527 27.904C258.905 29.7387 258.095 32.1067 258.095 35.008C258.095 37.9093 258.905 40.2987 260.527 42.176C262.191 44.0107 264.345 44.928 266.991 44.928C269.636 44.928 271.769 44.0107 273.391 42.176C275.055 40.2987 275.887 37.9093 275.887 35.008C275.887 32.1067 275.055 29.7387 273.391 27.904C271.769 26.0267 269.636 25.088 266.991 25.088Z" fill="#F4B8A6"/>
</svg>
